<?xml version="1.0" encoding="UTF-8"?>
<svg xmlns="http://www.w3.org/2000/svg" width="128" height="128" viewBox="0 0 128 128" role="img" aria-label="sleet">
  <defs>
    <filter id="ds" x="-20%" y="-20%" width="140%" height="140%">
      <feDropShadow dx="0" dy="2" stdDeviation="2" flood-color="#000000" flood-opacity="0.25"/>
    </filter>
    <linearGradient id="sunGrad" x1="0" y1="0" x2="0" y2="1">
      <stop offset="0" stop-color="#FFD86B"/>
      <stop offset="1" stop-color="#FFB300"/>
    </linearGradient>
    <linearGradient id="moonGrad" x1="0" y1="0" x2="0" y2="1">
      <stop offset="0" stop-color="#EAF2FF"/>
      <stop offset="1" stop-color="#BFD4FF"/>
    </linearGradient>
    <linearGradient id="cloudGrad" x1="0" y1="0" x2="0" y2="1">
      <stop offset="0" stop-color="#FFFFFF"/>
      <stop offset="1" stop-color="#EAF0FF"/>
    </linearGradient>
    <linearGradient id="cloudDarkGrad" x1="0" y1="0" x2="0" y2="1">
      <stop offset="0" stop-color="#E9EEFF"/>
      <stop offset="1" stop-color="#C9D5FF"/>
    </linearGradient>
    <linearGradient id="rainGrad" x1="0" y1="0" x2="0" y2="1">
      <stop offset="0" stop-color="#6FD1FF"/>
      <stop offset="1" stop-color="#2E8BFF"/>
    </linearGradient>
    <linearGradient id="snowGrad" x1="0" y1="0" x2="0" y2="1">
      <stop offset="0" stop-color="#FFFFFF"/>
      <stop offset="1" stop-color="#DFF0FF"/>
    </linearGradient>
    <linearGradient id="stormGrad" x1="0" y1="0" x2="0" y2="1">
      <stop offset="0" stop-color="#FFE07A"/>
      <stop offset="1" stop-color="#FFB300"/>
    </linearGradient>
    <linearGradient id="iceGrad" x1="0" y1="0" x2="0" y2="1">
      <stop offset="0" stop-color="#B8F0FF"/>
      <stop offset="1" stop-color="#4FC3FF"/>
    </linearGradient>
  </defs>
  <g>
  <g><circle cx="39.80" cy="45.20" r="19.80" fill="url(#cloudDarkGrad)" filter="url(#ds)"/>
<circle cx="64.00" cy="36.40" r="24.20" fill="url(#cloudDarkGrad)" filter="url(#ds)"/>
<circle cx="90.40" cy="47.40" r="18.70" fill="url(#cloudDarkGrad)" filter="url(#ds)"/>
<rect x="21.10" y="49.60" width="85.80" height="30.80" rx="19.80" fill="url(#cloudDarkGrad)" filter="url(#ds)"/></g>
  <circle cx="46" cy="90" r="6" fill="url(#iceGrad)" filter="url(#ds)"/>
<circle cx="64" cy="94" r="6" fill="url(#iceGrad)" filter="url(#ds)"/>
<circle cx="82" cy="90" r="6" fill="url(#iceGrad)" filter="url(#ds)"/>
</g>
</svg>
